<?xml version="1.0" encoding="UTF-8"?>
<svg width="300" height="200" xmlns="http://www.w3.org/2000/svg">
  <rect width="100%" height="100%" fill="#1f2937"/>
  <g stroke="#2563eb" stroke-width="2" fill="none">
    <!-- Detailed model -->
    <rect x="70" y="70" width="160" height="60"/>
    <line x1="70" y1="70" x2="70" y2="130"/>
    <line x1="230" y1="70" x2="230" y2="130"/>
    <line x1="70" y1="70" x2="230" y2="70"/>
    <line x1="70" y1="130" x2="230" y2="130"/>
    <line x1="150" y1="70" x2="150" y2="130"/>
    <line x1="70" y1="100" x2="230" y2="100"/>
    <line x1="110" y1="70" x2="110" y2="130"/>
    <line x1="190" y1="70" x2="190" y2="130"/>
    <!-- Connection details -->
    <circle cx="70" cy="70" r="4" fill="#2563eb"/>
    <circle cx="230" cy="70" r="4" fill="#2563eb"/>
    <circle cx="70" cy="130" r="4" fill="#2563eb"/>
    <circle cx="230" cy="130" r="4" fill="#2563eb"/>
    <circle cx="150" cy="70" r="4" fill="#2563eb"/>
    <circle cx="150" cy="130" r="4" fill="#2563eb"/>
    <circle cx="70" cy="100" r="4" fill="#2563eb"/>
    <circle cx="230" cy="100" r="4" fill="#2563eb"/>
  </g>
  <text x="150" y="190" font-family="Arial" font-size="12" fill="#78909c" text-anchor="middle">Detailed Tekla Model</text>
</svg>