<?xml version="1.0" encoding="UTF-8"?>
<svg width="300" height="200" xmlns="http://www.w3.org/2000/svg">
  <rect width="100%" height="100%" fill="#253a5f"/>
  <g stroke="#38bdf8" stroke-width="2" fill="none">
    <!-- Pipe racks -->
    <line x1="60" y1="140" x2="60" y2="80"/>
    <line x1="240" y1="140" x2="240" y2="80"/>
    <line x1="60" y1="80" x2="240" y2="80"/>
    <line x1="100" y1="80" x2="100" y2="140"/>
    <line x1="140" y1="80" x2="140" y2="140"/>
    <line x1="180" y1="80" x2="180" y2="140"/>
    <line x1="220" y1="80" x2="220" y2="140"/>
    <line x1="60" y1="100" x2="240" y2="100"/>
    <line x1="60" y1="120" x2="240" y2="120"/>
    <circle cx="60" cy="90" r="5" fill="#38bdf8"/>
    <circle cx="100" cy="90" r="5" fill="#38bdf8"/>
    <circle cx="140" cy="90" r="5" fill="#38bdf8"/>
    <circle cx="180" cy="90" r="5" fill="#38bdf8"/>
    <circle cx="220" cy="90" r="5" fill="#38bdf8"/>
    <circle cx="60" cy="110" r="5" fill="#38bdf8"/>
    <circle cx="100" cy="110" r="5" fill="#38bdf8"/>
    <circle cx="140" cy="110" r="5" fill="#38bdf8"/>
    <circle cx="180" cy="110" r="5" fill="#38bdf8"/>
    <circle cx="220" cy="110" r="5" fill="#38bdf8"/>
  </g>
  <text x="150" y="190" font-family="Arial" font-size="12" fill="#78909c" text-anchor="middle">Pipe Racks</text>
</svg>