<?xml version="1.0" encoding="UTF-8"?>
<svg width="300" height="200" xmlns="http://www.w3.org/2000/svg">
  <rect width="100%" height="100%" fill="#1a2f44"/>
  <g stroke="#38bdf8" stroke-width="2" fill="none">
    <!-- Platforms and ladders -->
    <rect x="80" y="120" width="140" height="40"/>
    <line x1="80" y1="120" x2="80" y2="160"/>
    <line x1="220" y1="120" x2="220" y2="160"/>
    <line x1="150" y1="120" x2="150" y2="80"/>
    <line x1="130" y1="80" x2="170" y2="80"/>
    <line x1="130" y1="80" x2="130" y2="100"/>
    <line x1="170" y1="80" x2="170" y2="100"/>
    <rect x="135" y="100" width="30" height="20" fill="#38bdf8" opacity="0.3"/>
    <!-- Ladder -->
    <line x1="230" y1="120" x2="250" y2="120"/>
    <line x1="230" y1="160" x2="250" y2="160"/>
    <line x1="230" y1="120" x2="230" y2="160"/>
    <line x1="250" y1="120" x2="250" y2="160"/>
    <line x1="230" y1="125" x2="250" y2="125"/>
    <line x1="230" y1="130" x2="250" y2="130"/>
    <line x1="230" y1="135" x2="250" y2="135"/>
    <line x1="230" y1="140" x2="250" y2="140"/>
    <line x1="230" y1="145" x2="250" y2="145"/>
    <line x1="230" y1="150" x2="250" y2="150"/>
    <line x1="230" y1="155" x2="250" y2="155"/>
  </g>
  <text x="150" y="190" font-family="Arial" font-size="12" fill="#78909c" text-anchor="middle">Platforms & Ladders</text>
</svg>